<?xml version="1.0" encoding="utf-8" ?>
<svg xmlns="http://www.w3.org/2000/svg" width="264" height="255" viewBox="0 0 264 255"><path d="M47.5622 24.0627C50.8533 23.4843 59.9583 23.4532 63.231 23.9417C63.544 26.3774 63.498 29.7552 63.5336 32.2775C66.0131 32.6347 68.4185 32.3386 70.8502 32.6058C73.8437 32.9346 71.1732 35.237 72.7884 37.4613C74.4786 38.2551 78.8289 37.7603 81.3443 38.0442C81.5745 42.5822 81.4933 47.8057 81.5261 52.3952C84.5403 52.6397 87.5037 52.6362 90.5252 52.6677C90.4139 55.4489 90.6772 58.738 90.2743 61.4427C94.9084 61.9075 103.798 61.5909 108.694 61.5686C118.648 61.603 128.603 61.5754 138.557 61.4859C138.243 59.9301 138.268 54.7049 138.234 52.7295C140.829 52.8355 144.224 52.4683 147.132 52.5124C147.455 48.6901 147.261 42.0331 147.267 38.0041C150.09 38.0725 153.481 37.8555 156.34 37.7115C156.27 36.1926 156.292 34.425 156.273 32.8849C158.843 32.5067 162.395 32.4235 165.055 32.2875C165.344 30.2638 165.238 26.2654 165.41 23.87C168.897 23.5224 177.81 23.6105 181.218 23.8979C181.327 26.6973 181.399 29.4979 181.436 32.2991C184.382 32.2817 187.326 32.4483 190.252 32.7977C189.95 63.1486 190.491 93.6127 190.27 123.973C190.202 133.233 190.1 142.576 190.285 151.829C184.712 152.186 179.13 152.393 173.546 152.451C173.471 154.537 173.91 159.362 172.977 160.625C171.694 161.541 167.152 161.239 165.068 161.367C165.459 166.696 164.876 173.078 165.435 178.43C168.143 178.681 171.527 178.58 173.952 179.163C174.241 184.652 173.6 192.549 174.284 197.625C177.602 198.213 179.442 197.627 182.467 197.99C182.48 195.121 182.514 192.253 182.571 189.384C186.19 188.95 188.319 188.587 191.971 189.039C191.933 185.877 191.94 182.715 191.994 179.554C195.003 179.303 197.947 179.27 200.963 179.208L204.792 178.66C205.138 177.078 205.071 172.384 205.118 170.509C210.971 170.085 220.097 170.215 225.994 170.5C225.67 174.586 225.746 178.927 225.803 183.037C225.995 196.928 225.627 210.858 225.79 224.743C214.323 225.309 202.273 224.7 190.758 224.822C185.402 224.879 179.083 224.679 173.793 225.173C174.049 227.205 173.921 239.105 173.576 240.773C172.595 241.759 166.118 241.584 164.353 241.557C150.623 241.349 136.259 241.91 122.582 241.461C122.453 238.298 122.453 234.323 122.202 231.273C116.881 229.897 111.761 230.432 106.338 230.971C105.391 232.728 106.659 239.216 105.587 241.101C103.784 241.84 58.8376 241.627 54.7183 241.448C54.412 239.125 54.5046 234.673 54.5056 232.214L54.5203 216.804C54.5174 205.558 54.004 190.369 54.6197 179.358C56.6474 179.004 61.0158 178.927 63.4343 178.693C63.6434 173.157 63.5356 166.803 63.5595 161.221C61.4844 161.345 57.4485 161.099 55.2143 161.029C55.0368 159.596 55.5736 152.865 54.4576 152.567C50.8825 151.612 41.9992 153.289 38.8681 151.639C38.2765 150.803 38.2545 150.015 38.2556 148.929C38.2606 144.219 38.3169 139.496 38.312 134.786C38.2633 123.694 38.2749 112.602 38.3466 101.511L38.2877 32.9064C40.6921 32.5346 44.7046 32.3449 47.145 32.3334C47.3525 29.4377 47.1877 27.1675 47.5622 24.0627Z"/><path fill="#F2F2EF" d="M72.2828 170.223L115.326 170.2C128.979 170.14 142.633 170.163 156.286 170.269L156.301 178.77L156.289 214.591C156.294 220.05 156.086 227.511 156.325 232.788L140.511 232.794L131.493 232.792C131.37 224.146 131.463 215.358 131.443 206.694C129.618 206.693 127.792 206.643 125.969 206.541C124.847 206.552 123.606 206.591 122.495 206.545L122.469 221.647C122.467 224.362 122.569 228.715 122.202 231.273C116.881 229.897 111.761 230.432 106.338 230.971C105.809 229.656 106.065 209.169 106.162 206.587C103.144 206.622 100.125 206.612 97.1065 206.556C97.0674 215.221 97.2634 224.154 97.1112 232.775L88.2429 232.789L72.3019 232.796C71.9782 220.124 72.4295 206.959 72.2383 194.249C72.1651 189.382 72.5345 183.635 72.2791 178.906C72.179 176.249 72.275 172.929 72.2828 170.223Z"/><path fill="#BCBFC6" d="M125.969 206.541C129.803 206.163 136.324 206.637 140.47 206.531C140.301 215.285 140.315 224.041 140.511 232.794L131.493 232.792C131.37 224.146 131.463 215.358 131.443 206.694C129.618 206.693 127.792 206.643 125.969 206.541Z"/><path fill="#BCBFC6" d="M88.1992 206.507C91.1615 206.587 94.101 206.417 97.1065 206.556C97.0674 215.221 97.2634 224.154 97.1112 232.775L88.2429 232.789C88.0254 224.384 88.2165 215.007 88.1992 206.507Z"/><path fill="#F2F2EF" d="M204.792 178.66C205.156 179.139 205.062 179.189 205.802 179.241C209.423 179.494 213.313 179.469 216.929 179.49C216.834 191.676 217.047 203.976 216.881 216.124L174.107 216.078C174.17 213.131 174.051 210.08 174.177 207.17C180.336 207.074 186.496 207.061 192.656 207.13C192.677 204.155 192.635 200.883 192.739 197.933C195.493 197.856 198.247 197.819 201.001 197.821L200.963 179.208L204.792 178.66Z"/><path fill="#BCBFC6" d="M156.301 178.77C157.521 179.086 163.526 178.853 165.188 178.803L165.158 232.775L156.325 232.788C156.086 227.511 156.294 220.05 156.289 214.591L156.301 178.77Z"/><path fill="#BCBFC6" d="M63.4801 178.972C66.4123 178.886 69.346 178.863 72.2791 178.906C72.5345 183.635 72.1651 189.382 72.2383 194.249C72.4295 206.959 71.9782 220.124 72.3019 232.796L63.4897 232.792C63.2394 215.104 63.3752 196.685 63.4801 178.972Z"/><path fill="#F2F2EF" d="M165.156 32.5382C169.177 32.8728 177.163 32.6904 181.265 32.6511C181.446 69.5142 181.436 106.378 181.237 143.241C178.958 143.247 175.763 143.163 173.55 143.266C173.517 146.263 173.499 149.261 173.496 152.259C167.777 152.207 162.056 152.203 156.337 152.245C156.199 154.987 156.27 158.424 156.259 161.219L72.2585 161.216C72.2505 158.233 72.2661 155.25 72.3054 152.267C66.5493 152.216 60.7929 152.21 55.0367 152.25L55.0019 143.273L47.2968 143.239L47.275 32.6367L63.4729 32.6159L63.467 46.1229C66.4502 46.1424 69.4332 46.1797 72.416 46.2348L72.4559 53.8252L81.3046 53.8278C81.6306 58.8678 81.467 65.6604 81.4414 70.8085L147.202 70.7813C147.152 65.2273 147.068 59.3916 147.189 53.844L156.217 53.784L156.105 46.2072C159.139 46.1423 162.173 46.1292 165.207 46.168C165.149 42.342 164.908 36.2749 165.156 32.5382Z"/><path fill="#BCBFC6" d="M165.156 32.5382C169.177 32.8728 177.163 32.6904 181.265 32.6511C181.446 69.5142 181.436 106.378 181.237 143.241C178.958 143.247 175.763 143.163 173.55 143.266C173.346 136.095 173.499 128.233 173.498 121.02L173.471 78.5331L54.9843 78.5473C55.3363 99.6756 55.0201 122.072 55.0019 143.273L47.2968 143.239L47.275 32.6367L63.4729 32.6159L63.467 46.1229C66.4502 46.1424 69.4332 46.1797 72.416 46.2348L72.4559 53.8252L81.3046 53.8278C81.6306 58.8678 81.467 65.6604 81.4414 70.8085L147.202 70.7813C147.152 65.2273 147.068 59.3916 147.189 53.844L156.217 53.784L156.105 46.2072C159.139 46.1423 162.173 46.1292 165.207 46.168C165.149 42.342 164.908 36.2749 165.156 32.5382Z"/><path fill="#F37B88" d="M52.7379 47.8899C55.4936 47.7868 58.1186 47.8076 60.8721 47.8298L60.9036 55.9585C63.8559 55.7512 66.9032 55.8004 69.8683 55.8006C69.8371 58.413 69.8583 61.0522 69.8593 63.6669C72.4399 63.5869 75.0223 63.5823 77.6032 63.6531C77.4938 66.6306 77.5193 69.5401 77.5347 72.5175C69.0719 72.7053 60.4727 72.4781 51.9813 72.6043C51.9014 69.8385 51.6589 49.3887 52.1571 48.0999L52.7379 47.8899Z"/><path fill="#F37B88" d="M168.025 47.8556C170.809 47.7437 173.762 47.8195 176.559 47.8436C176.549 55.9699 176.417 64.4542 176.595 72.5522L158.529 72.5854L150.977 72.5052C151.01 69.5785 150.986 66.6514 150.907 63.7256C153.505 63.6275 156.105 63.5768 158.705 63.5735C158.64 61.0036 158.617 58.4328 158.635 55.8621C161.67 55.757 164.631 55.8099 167.666 55.8487C167.597 54.106 167.273 49.0389 168.025 47.8556Z"/><path fill="#BCBFC6" d="M72.3054 152.267L156.337 152.245C156.199 154.987 156.27 158.424 156.259 161.219L72.2585 161.216C72.2505 158.233 72.2661 155.25 72.3054 152.267Z"/><path fill="#7A9BBE" d="M63.4585 114.513L88.2514 114.51C88.2371 117.423 88.2864 120.598 88.0906 123.485L97.0027 123.506C96.9576 126.452 96.979 129.462 96.9682 132.414C95.5482 132.623 88.2587 132.504 86.5302 132.502L63.458 132.461L63.4585 114.513Z"/><path fill="#7A9BBE" d="M140.401 114.51L165.234 114.522C165.088 119.94 164.992 127.076 165.224 132.446C162.365 132.511 159.362 132.477 156.491 132.487L131.575 132.473C131.624 129.481 131.628 126.488 131.588 123.496L140.479 123.508C140.427 120.509 140.401 117.51 140.401 114.51Z"/><path fill="#F37B88" d="M106.34 134.258C111.367 134.41 117.18 134.284 122.264 134.29L122.225 143.294L106.338 143.274L106.34 134.258Z"/></svg>