<?xml version="1.0" encoding="utf-8" ?>
<svg xmlns="http://www.w3.org/2000/svg" width="450" height="450" viewBox="0 0 450 450"><path fill="#4C3CCB" d="M195.178 141.695C196.305 139.619 197.365 137.717 199.885 137.227C203.754 136.36 206.227 134.033 210.027 132.715C213.93 131.361 216.471 133.813 218.44 133.596C227.087 132.643 228.741 132.729 234.612 139.571C244.192 142.232 249.815 145.103 246.482 156.895C246.205 157.877 245.529 158.898 245.273 159.716C248.405 159.834 256.375 151.936 261.637 152.592C266.574 153.207 268.286 154.593 271.528 158.188C275.807 160.603 279.192 162.79 280.561 167.859C281.798 172.44 280.822 176.033 278.802 180.13C279.612 181.633 282.63 190.663 283.28 192.572C287.251 204.227 290.997 215.996 294.923 227.673C295.854 230.441 297.046 235.293 298.267 237.707C298.738 238.636 304.148 241.414 305.641 242.293C312.233 238.318 319.979 234.525 326.792 230.83C329.215 229.516 338.885 224.09 341.051 223.545C341.818 225.378 341.458 279.235 341.459 285.916L341.475 304.959C341.477 308.147 341.64 313.315 341.179 316.293C338.629 318.319 336.043 320.298 333.422 322.231C335.569 324.653 336.612 327.276 338.039 330.187C339.588 330.985 343.294 325.961 349.941 333.012C349.944 332.715 349.953 332.418 349.967 332.121C350.024 331.007 350.153 328.939 351.721 329.106C352.999 330.087 353.206 332.373 353.836 333.969C355.461 335.172 355.019 335.136 354.8 337.067L355.075 337.253C355.822 337.164 358.144 336.843 358.843 336.974C359.549 337.107 362.101 339.014 362.781 338.881C363.273 337.956 363.475 337.219 364.517 336.985C367.078 338.16 365.773 339.979 366.998 341.174C367.886 341.28 368.487 341.238 369.145 341.813C370.085 343.918 368.608 344.58 368.556 346.763C369.091 347.713 369.985 347.94 370.802 348.707C374.586 352.255 374.834 355.638 375.139 360.445C371.792 360.143 366.864 360.574 363.373 360.616C358.462 360.676 353.6 360.663 348.689 360.662L280.075 360.69C236.575 360.409 193.073 360.401 149.573 360.666L93.4435 360.671C86.5802 360.668 80.1517 360.237 73.2092 360.396C75.0204 354.072 76.8879 354.04 81.9459 351.765C82.2422 351.632 82.5097 348.205 84.1809 346.951C85.234 346.813 84.9147 346.863 86.0385 347.391C86.8969 347.213 87.5765 344.298 88.2568 343.561C90.0267 341.643 92.9064 340.529 95.2845 338.822C93.0928 334.736 92.5096 330.972 97.5914 329.203C98.2812 327.484 99.6919 323.485 101.983 323.599C103.951 323.696 105.406 325.681 106.836 326.882C105.26 322.33 102.062 319.75 104.061 314.198C105.341 310.643 106.967 307.451 108.594 304.055L116.502 287.607C117.225 286.095 119.153 282.261 119.534 280.795C118.947 279.815 118.406 280.912 117.408 279.911C117.331 278.031 127.483 259.728 128.986 256.709C131.885 250.882 135.636 243.641 138.913 237.872C140.945 234.296 144.55 230.979 148.382 229.394C159.664 224.885 171.1 220.645 182.495 216.423C185.44 215.332 188.772 214.719 191.876 213.598C191.595 210.731 191.895 208.845 191.941 206.036C192.052 199.297 192.414 192.695 192.484 185.945C188.295 181.046 181.758 175.943 186.715 168.63C183.429 164.997 182.543 163.067 181.198 158.384C181.942 155.753 182.125 152.84 181.464 150.174C182.099 147.579 184.174 145.184 186.44 143.798C189.049 142.173 192.114 141.435 195.178 141.695ZM226.633 215.328C229.838 216.388 232.989 217.235 236.169 218.294C244.098 220.935 252.01 224.078 259.907 226.765C262.646 225.097 265.959 222.985 268.793 221.643C269.564 222.193 270.477 222.977 271.369 223.127C271.767 222.72 271.666 222.962 271.685 222.408C270.796 220.577 269.277 210.018 268.343 207.099C266.858 202.454 265.387 200.34 262.94 196.186C253.348 194.538 252.801 189.893 245.319 184.129C243.676 185.031 243.064 185.206 242.285 186.92C242.5 188.129 241.901 189.979 241.605 191.173C239.908 198.006 236.334 205.038 228.582 205.957C228.265 205.995 226.668 206.295 226.485 206.736C226.459 209.315 226.692 212.854 226.633 215.328ZM147.306 297.687C148.506 297.497 149.854 297.24 151.055 297.185C151.027 295.677 151.044 293.328 151.23 291.703C151.119 291.592 151.009 291.48 150.898 291.368L147.045 297.275C147.226 297.665 147.097 297.567 147.306 297.687Z"/><path fill="#4231DC" d="M245.273 159.716C248.405 159.834 256.375 151.936 261.637 152.592C266.574 153.207 268.286 154.593 271.528 158.188C275.807 160.603 279.192 162.79 280.561 167.859C281.798 172.44 280.822 176.033 278.802 180.13L278.552 180.597C278.055 180.362 277.855 180.029 277.506 179.6C276.435 180.803 277.802 181.95 277.616 183.46L277.143 182.499C275.474 182.298 272.868 185.829 268.526 186.013C267.055 186.356 262.554 186.346 261.008 186.209C255.926 185.761 252.704 184.18 249.466 180.317L249.852 180.127C250.377 179.319 250.77 179.034 250.736 178.21C251.407 176.715 251.508 176.327 251.852 174.728C252.013 174.592 252.533 174.49 252.779 174.422L252.852 174.291L254.028 173.601C253.947 172.409 254.015 171.498 254.082 170.317C253.699 169.613 253.654 169.639 253.018 169.196L252.938 169.07C252.691 169.476 252.867 169.326 252.392 169.496L251.816 168.956L251.73 169.108L251.11 168.761C250.723 169.128 250.828 168.961 250.622 169.447C250.365 168.617 250.317 168.406 249.893 167.662C249.446 166.236 249.033 165.66 248.257 164.386C247.698 163.762 246.944 163.05 246.34 162.446C245.229 161.479 244.073 160.875 242.801 160.141C244.047 160.119 244.004 159.51 245.273 159.716Z"/><path fill="#4231DC" d="M245.273 159.716C248.405 159.834 256.375 151.936 261.637 152.592C266.574 153.207 268.286 154.593 271.528 158.188C271.2 158.557 270.503 159.3 270.247 159.665C269.138 159.219 267.077 159.196 265.86 159.153C264.955 159.351 263.927 159.548 263.044 159.787C261.267 160.378 260.197 160.911 258.784 162.135C255.736 164.658 254.888 166.513 254.082 170.317C253.699 169.613 253.654 169.639 253.018 169.196L252.938 169.07C252.691 169.476 252.867 169.326 252.392 169.496L251.816 168.956L251.73 169.108L251.11 168.761C250.723 169.128 250.828 168.961 250.622 169.447C250.365 168.617 250.317 168.406 249.893 167.662C249.446 166.236 249.033 165.66 248.257 164.386C247.698 163.762 246.944 163.05 246.34 162.446C245.229 161.479 244.073 160.875 242.801 160.141C244.047 160.119 244.004 159.51 245.273 159.716Z"/><path fill="#4C3CCB" d="M249.31 163.698C249.62 163.332 249.945 162.979 250.284 162.64C255.591 157.247 260.493 157.781 267.571 157.749C266.988 158.345 266.114 158.722 265.86 159.153C264.955 159.351 263.927 159.548 263.044 159.787C261.267 160.378 260.197 160.911 258.784 162.135C255.736 164.658 254.888 166.513 254.082 170.317C253.699 169.613 253.654 169.639 253.018 169.196L252.938 169.07C252.691 169.476 252.867 169.326 252.392 169.496L251.816 168.956L251.73 169.108L251.11 168.761C250.723 169.128 250.828 168.961 250.622 169.447C250.365 168.617 250.317 168.406 249.893 167.662C249.446 166.236 249.033 165.66 248.257 164.386C248.529 164.175 249.005 163.893 249.31 163.698Z"/><path fill="#76E0B5" d="M250.81 165.65C253.399 162.721 254.858 161.531 258.545 160.188C256.003 162.755 253.377 165.257 252.938 169.07C252.691 169.476 252.867 169.326 252.392 169.496L251.816 168.956C251.501 167.751 251.272 166.819 250.81 165.65Z"/><path fill="#FEFEFE" d="M247.881 161.504C253.499 158.642 261.312 151.657 267.601 157.31L267.571 157.749C260.493 157.781 255.591 157.247 250.284 162.64C249.945 162.979 249.62 163.332 249.31 163.698C248.862 163.127 248.287 162.146 247.881 161.504Z"/><path fill="#4C3CCB" d="M252.852 174.291L254.028 173.601C254.893 177.189 255.636 178.955 258.4 181.564C260.757 183.336 262.376 184.16 265.339 184.726C263.694 184.889 264.142 184.621 263.143 185.5L263.218 185.734C265.174 186.113 266.744 185.737 268.526 186.013C267.055 186.356 262.554 186.346 261.008 186.209C255.926 185.761 252.704 184.18 249.466 180.317L249.852 180.127C250.377 179.319 250.77 179.034 250.736 178.21C251.407 176.715 251.508 176.327 251.852 174.728C252.013 174.592 252.533 174.49 252.779 174.422L252.852 174.291Z"/><path fill="#76E0B5" d="M252.852 174.291L254.028 173.601C254.893 177.189 255.636 178.955 258.4 181.564L257.705 182.68L257.866 182.999L257.729 183.307C255.726 183.479 251.982 179.719 250.736 178.21C251.407 176.715 251.508 176.327 251.852 174.728C252.013 174.592 252.533 174.49 252.779 174.422L252.852 174.291Z"/><path fill="#4231DC" d="M252.852 174.291L254.028 173.601C254.893 177.189 255.636 178.955 258.4 181.564L257.705 182.68C254.689 180.186 253.632 178.269 252.779 174.422L252.852 174.291Z"/><path fill="#FEFEFE" d="M258.784 162.135C260.197 160.911 261.267 160.378 263.044 159.787C264.34 159.954 266.327 159.916 267 160.695C264.401 160.643 261.864 161.493 259.822 163.101C255.558 166.458 254.302 172.383 256.837 177.181C259.372 181.98 264.974 184.281 270.15 182.651L271.382 183.417L271.442 183.739C269.249 184.644 267.733 184.84 265.339 184.726C262.376 184.16 260.757 183.336 258.4 181.564C255.636 178.955 254.893 177.189 254.028 173.601C253.947 172.409 254.015 171.498 254.082 170.317C254.888 166.513 255.736 164.658 258.784 162.135Z"/><path fill="#4231DC" d="M270.247 159.665C270.503 159.3 271.2 158.557 271.528 158.188C275.807 160.603 279.192 162.79 280.561 167.859C281.798 172.44 280.822 176.033 278.802 180.13L278.552 180.597C278.055 180.362 277.855 180.029 277.506 179.6C276.435 180.803 277.802 181.95 277.616 183.46L277.143 182.499C275.474 182.298 272.868 185.829 268.526 186.013C266.744 185.737 265.174 186.113 263.218 185.734L263.143 185.5C264.142 184.621 263.694 184.889 265.339 184.726C267.733 184.84 269.249 184.644 271.442 183.739C272.624 183.374 273.018 183.039 274.037 182.365C276.409 181.241 278.466 177.365 279.199 174.96C280.256 171.053 279.26 166.675 276.551 163.651C274.432 161.396 273.119 160.653 270.247 159.665Z"/><path fill="#FEFEFE" d="M276.551 163.651C279.26 166.675 280.256 171.053 279.199 174.96L279.005 174.744C278.297 174.678 278.346 174.693 277.764 174.282C278.508 170.808 277.564 167.186 275.22 164.516C275.653 164.491 276.122 163.986 276.551 163.651Z"/><path fill="#F8F6F1" d="M265.86 159.153C267.077 159.196 269.138 159.219 270.247 159.665C273.119 160.653 274.432 161.396 276.551 163.651C276.122 163.986 275.653 164.491 275.22 164.516C273.138 162.145 270.155 160.758 267 160.695C266.327 159.916 264.34 159.954 263.044 159.787C263.927 159.548 264.955 159.351 265.86 159.153Z"/><path fill="#FEFBEA" d="M277.764 174.282C278.346 174.693 278.297 174.678 279.005 174.744L279.199 174.96C278.466 177.365 276.409 181.241 274.037 182.365C273.798 181.8 273.589 181.638 273.192 181.157C275.533 179.529 277.168 177.071 277.764 174.282Z"/><path fill="#F8F6F1" d="M270.15 182.651C271.234 182.31 272.26 181.806 273.192 181.157C273.589 181.638 273.798 181.8 274.037 182.365C273.018 183.039 272.624 183.374 271.442 183.739L271.382 183.417L270.15 182.651Z"/><path fill="#FEFEFE" d="M264.649 162.352C268.115 161.581 271.728 162.737 274.102 165.377C276.476 168.017 277.245 171.732 276.112 175.097C274.98 178.462 272.123 180.957 268.635 181.624C263.353 182.635 258.237 179.218 257.148 173.952C256.058 168.685 259.399 163.519 264.649 162.352Z"/><path fill="#FEFEFE" d="M249.466 180.317C252.704 184.18 255.926 185.761 261.008 186.209C262.554 186.346 267.055 186.356 268.526 186.013C272.868 185.829 275.474 182.298 277.143 182.499L277.616 183.46C277.988 185.2 279.554 189.307 280.19 191.127C281.754 195.604 283.271 200.097 284.741 204.606L291.743 225.952C292.531 228.351 294.377 234.462 295.32 236.508C289.289 233.707 280.72 228.594 274.64 225.234C273.611 220.989 272.635 216.057 271.841 211.727L271.402 209.99C271.342 208.38 270.589 205.218 269.877 203.763C268.603 200.966 265.954 196.486 264.402 193.66C256.629 194.034 252.936 187.218 247.332 182.447C248.33 181.615 248.62 181.294 249.466 180.317Z"/><path fill="#4231DC" d="M229.716 162.335C233.434 158.774 238.159 158.718 242.801 160.141C244.073 160.875 245.229 161.479 246.34 162.446C246.944 163.05 247.698 163.762 248.257 164.386C249.033 165.66 249.446 166.236 249.893 167.662C250.317 168.406 250.365 168.617 250.622 169.447C250.828 168.961 250.723 169.128 251.11 168.761L251.73 169.108L251.816 168.956L252.392 169.496C252.867 169.326 252.691 169.476 252.938 169.07L253.018 169.196C253.654 169.639 253.699 169.613 254.082 170.317C254.015 171.498 253.947 172.409 254.028 173.601L252.852 174.291L252.779 174.422C252.533 174.49 252.013 174.592 251.852 174.728C251.508 176.327 251.407 176.715 250.736 178.21C250.77 179.034 250.377 179.319 249.852 180.127L249.466 180.317C248.62 181.294 248.33 181.615 247.332 182.447L247.151 182.588C246.318 182.589 246.248 182.657 245.524 182.222C244.583 182.772 243.983 183.132 242.971 183.574L242.945 183.703C240.492 184.496 239.008 184.885 236.393 184.65C233.668 184.216 232.198 183.397 229.929 181.915C229.555 182.415 229.506 182.6 228.928 182.809C226.555 180.777 226.214 180.33 224.843 177.493C225.571 176.509 225.368 176.492 225.492 175.169C224.422 169.599 225.673 166.234 229.595 162.269L229.716 162.335Z"/><path fill="#F8F6F1" d="M229.595 162.269L229.716 162.335C229.942 162.772 230.153 163.179 230.362 163.625C226.474 167.163 225.56 172.923 228.161 177.49C230.761 182.057 236.181 184.211 241.207 182.673C241.789 182.987 242.363 183.327 242.971 183.574L242.945 183.703C240.492 184.496 239.008 184.885 236.393 184.65C233.668 184.216 232.198 183.397 229.929 181.915C229.555 182.415 229.506 182.6 228.928 182.809C226.555 180.777 226.214 180.33 224.843 177.493C225.571 176.509 225.368 176.492 225.492 175.169C224.422 169.599 225.673 166.234 229.595 162.269Z"/><path fill="#4231DC" d="M225.492 175.169C226.682 178.458 227.386 179.474 229.929 181.915C229.555 182.415 229.506 182.6 228.928 182.809C226.555 180.777 226.214 180.33 224.843 177.493C225.571 176.509 225.368 176.492 225.492 175.169Z"/><path fill="#FEFEFE" d="M229.716 162.335C233.434 158.774 238.159 158.718 242.801 160.141C244.073 160.875 245.229 161.479 246.34 162.446C246.944 163.05 247.698 163.762 248.257 164.386C249.033 165.66 249.446 166.236 249.893 167.662L249.714 167.822C248.886 167.829 248.81 167.72 248.137 167.262C246.645 164 243.686 161.647 240.173 160.928C236.659 160.209 233.014 161.211 230.362 163.625C230.153 163.179 229.942 162.772 229.716 162.335Z"/><path fill="#4231DC" d="M250.622 169.447C250.828 168.961 250.723 169.128 251.11 168.761L251.73 169.108L251.816 168.956L252.392 169.496C252.867 169.326 252.691 169.476 252.938 169.07L253.018 169.196C253.654 169.639 253.699 169.613 254.082 170.317C254.015 171.498 253.947 172.409 254.028 173.601L252.852 174.291L252.779 174.422C252.533 174.49 252.013 174.592 251.852 174.728C251.508 176.327 251.407 176.715 250.736 178.21C250.77 179.034 250.377 179.319 249.852 180.127L249.466 180.317C248.62 181.294 248.33 181.615 247.332 182.447L247.151 182.588C246.318 182.589 246.248 182.657 245.524 182.222L245.728 181.92C246.682 181.285 246.862 181.037 247.612 180.155C247.737 180.018 247.858 179.879 247.976 179.737C250.545 176.644 250.959 173.286 250.622 169.447Z"/><path fill="#8092E0" d="M251.816 168.956L252.392 169.496C252.867 169.326 252.691 169.476 252.938 169.07L253.018 169.196C253.654 169.639 253.699 169.613 254.082 170.317C254.015 171.498 253.947 172.409 254.028 173.601L252.852 174.291L252.779 174.422C252.533 174.49 252.013 174.592 251.852 174.728C251.728 172.919 251.956 171.428 251.73 169.108L251.816 168.956Z"/><path fill="#4231DC" d="M253.018 169.196C253.654 169.639 253.699 169.613 254.082 170.317C254.015 171.498 253.947 172.409 254.028 173.601L252.852 174.291C252.796 172.842 252.693 170.558 253.018 169.196Z"/><defs><linearGradient id="gradient_0" gradientUnits="userSpaceOnUse" x1="250.49557" y1="173.17508" x2="246.52646" y2="173.74939"><stop offset="0" stop-color="#F0ECF9"/><stop offset="1" stop-color="#FBFFE7"/></linearGradient></defs><path fill="url(#gradient_0)" d="M248.137 167.262C248.81 167.72 248.886 167.829 249.714 167.822L249.893 167.662C250.317 168.406 250.365 168.617 250.622 169.447C250.959 173.286 250.545 176.644 247.976 179.737C247.858 179.879 247.737 180.018 247.612 180.155L247.389 179.96C247.321 179.233 247.322 179.286 246.897 178.685C249.374 175.393 249.85 171.009 248.137 167.262Z"/><path fill="#FEFBEA" d="M244.689 180.897L245.728 181.92L245.524 182.222C244.583 182.772 243.983 183.132 242.971 183.574C242.363 183.327 241.789 182.987 241.207 182.673C242.463 182.289 243.641 181.688 244.689 180.897Z"/><path fill="#F8F6F1" d="M246.897 178.685C247.322 179.286 247.321 179.233 247.389 179.96L247.612 180.155C246.862 181.037 246.682 181.285 245.728 181.92L244.689 180.897C245.524 180.266 246.268 179.522 246.897 178.685Z"/><path fill="#FEFEFE" d="M235.802 162.349C241.099 161.169 246.352 164.498 247.546 169.793C248.739 175.087 245.422 180.348 240.131 181.555C234.821 182.765 229.537 179.435 228.34 174.122C227.142 168.809 230.486 163.534 235.802 162.349Z"/><path fill="#76E0B5" d="M229.149 183.545C226.993 183.045 224.399 181.161 222.973 179.473C220.968 177.089 220.01 173.996 220.32 170.896C220.564 168.189 221.898 165.106 224.055 163.469C225.101 162.675 227.505 160.671 228.755 160.797L228.949 161.251C229.282 161.712 229.359 161.765 229.595 162.269C225.673 166.234 224.422 169.599 225.492 175.169C225.368 176.492 225.571 176.509 224.843 177.493C226.214 180.33 226.555 180.777 228.928 182.809C229.019 183.062 229.136 183.297 229.149 183.545Z"/><path fill="#4C3CCB" d="M228.949 161.251C229.282 161.712 229.359 161.765 229.595 162.269C225.673 166.234 224.422 169.599 225.492 175.169C225.368 176.492 225.571 176.509 224.843 177.493C222.857 171.492 223.541 165.201 228.949 161.251Z"/><path fill="#F582AE" d="M185.425 218.028C186.158 218.024 195.098 225.067 196.981 226.235C197.437 230.318 197.218 238.429 197.221 242.869L197.185 274.425C183.311 276.965 184.338 283.218 176.698 294.175C169.516 294.894 160.565 296.086 153.404 297.137C153.48 294.118 153.462 290.969 153.49 287.938C155.858 283.722 158.562 279.685 161.056 275.548C162.088 273.837 164.34 271.337 164.221 269.442C163.706 268.671 164.04 268.953 163.166 268.586C162.365 269.022 160.518 272.246 159.864 273.266C157.919 276.752 154.226 282.459 151.976 285.793C141.878 283.713 130.124 279.947 120.386 278.203C121.489 276.568 123.025 273.411 123.986 271.56L130.01 259.931L136.671 247.071C139.505 241.605 142.575 234.52 148.551 232.132C160.542 227.342 173.247 222.225 185.425 218.028Z"/><path fill="#F582AE" d="M196.858 305.953C196.872 305.967 196.888 305.98 196.901 305.995C197.667 306.94 197.121 321.64 196.963 323.734C205.26 328.405 213.971 332.738 222.334 337.317C226.262 339.469 230.549 341.543 234.336 343.878C237.651 341.708 242.822 339.04 246.372 337.083L268.047 325.141C270.175 326.199 272.041 327.147 274.113 328.328L277.674 358.223L252.797 358.215C219.585 358.065 185.868 357.704 152.68 357.978C152.512 346.563 152.756 334.184 153.007 322.757C171.249 319.341 182.817 319.188 196.858 305.953Z"/><path fill="#FEFEFE" d="M270.316 225.533C271.222 225.805 278.519 229.923 279.758 230.61L303.401 243.691C303.173 247.071 303.302 251.649 303.301 255.141L303.299 275.592L303.28 339.964C302.326 339.983 273.231 325.215 270.272 323.754C270.47 309.376 270.344 294.758 270.345 280.366L270.316 225.533Z"/><path fill="#FEFEFE" d="M178.166 296.162C181.481 291.793 186.774 279.817 191.317 278.078C199.496 274.945 212.076 275.952 219.988 279.14C220.657 279.543 220.383 279.274 220.759 280.046L220.527 281.611L220.825 281.93C222.067 281.728 221.043 281.431 222.115 281.327C221.896 281.758 221.531 282.212 221.722 282.512C222.226 283.304 224.491 285.994 223.392 287.066C220.416 289.967 222.041 290.159 221.989 292.202C221.923 294.833 217.265 299.624 214.702 299.864C210.362 301.141 203.128 301.167 199.303 302.399C198.956 302.314 197.784 301.613 197.466 301.386C192.737 307.564 186.332 312.253 179.014 314.894C172.97 317.052 167.113 317.923 160.831 319.068C154.802 320.16 148.779 321.288 142.763 322.45L126.178 325.576C122.806 326.209 119.437 326.944 116.009 327.261C111.049 327.776 106.527 323.182 105.948 318.442C105.854 316.198 106.839 313.359 107.818 311.414C112.862 301.39 117.251 290.789 122.461 280.883C131.597 283.127 141.289 285.723 150.426 287.726C147.864 291.765 144.524 297.035 141.732 300.824C153.862 299.362 165.986 297.467 178.166 296.162Z"/><path fill="#4231DC" d="M219.988 279.14C220.657 279.543 220.383 279.274 220.759 280.046L220.527 281.611L220.825 281.93C222.067 281.728 221.043 281.431 222.115 281.327C221.896 281.758 221.531 282.212 221.722 282.512C222.226 283.304 224.491 285.994 223.392 287.066C220.416 289.967 222.041 290.159 221.989 292.202C221.923 294.833 217.265 299.624 214.702 299.864C210.362 301.141 203.128 301.167 199.303 302.399C198.956 302.314 197.784 301.613 197.466 301.386C199.686 297.987 212.87 300.015 216.701 296.628C217.063 296.308 216.981 296.327 217.024 295.896C215.41 294.312 210.457 294.881 209.28 294.376C208.954 293.673 208.966 293.727 209.1 292.962C211.503 291.043 217.135 294.856 219.583 292.761C219.873 291.938 219.859 291.984 219.659 291.128C217.878 288.591 212.441 289.818 209.825 288.288C209.323 287.463 209.42 287.899 209.53 286.932C211.92 285.513 220.724 290.003 221.148 286.089C219.577 281.491 209.744 284.672 209.171 281.963C210.219 279.166 217.644 282.637 219.891 281.27C220.281 280.51 220.105 279.999 219.988 279.14Z"/><path fill="#FEFEFE" d="M199.261 225.352L220.854 236.723C224.437 238.608 228.908 241.115 232.524 242.8L232.497 340.211C221.848 334.449 209.985 327.878 199.214 322.425C199.383 315.852 199.298 308.994 199.303 302.399C203.128 301.167 210.362 301.141 214.702 299.864C217.265 299.624 221.923 294.833 221.989 292.202C222.041 290.159 220.416 289.967 223.392 287.066C224.491 285.994 222.226 283.304 221.722 282.512C221.531 282.212 221.896 281.758 222.115 281.327C225.165 273.911 203.539 273.791 199.24 274.24L199.261 242.506C199.261 237.241 199.465 230.496 199.261 225.352Z"/><path fill="#FEFEFE" d="M187.805 175.759C185.822 167.757 195.777 163.38 198.931 174.534C200.211 174.906 201.658 175.366 202.945 175.623C203.059 174.537 203.159 173.401 203.303 172.323C204.71 172.432 206.55 172.525 207.906 172.741C209.607 181.231 214.574 179.489 221.241 181.688C222.971 182.258 224.503 184.36 226.657 184.904C229.47 186.23 232.011 186.239 235.088 186.226C236.781 186.227 238.475 186.217 240.168 186.198C238.308 195.477 235.423 205.252 223.681 203.42C224.058 208.001 224.325 212.59 224.481 217.183C225.961 217.524 227.784 218.252 229.249 218.788C225.604 226.883 219.138 234.142 209.473 228.234C206.841 226.625 203.556 225.157 200.838 223.661C199.9 223.145 198.142 221.759 197.153 221.914C197.03 222.538 197.053 222.626 196.752 223.174C195.338 222.901 190.134 218.468 188.636 217.267C190.64 216.679 192.281 216.029 194.217 215.272C194.163 210.335 194.41 204.645 194.546 199.671C194.651 195.804 194.737 188.554 195.289 184.803C192.653 182.68 191.352 181.377 189.16 178.793C188.584 177.652 188.266 176.969 187.805 175.759Z"/><path fill="#4C3CCB" d="M228.2 190.525C233.69 190.244 232.973 195.599 227.087 195.423C224.871 194.761 224.162 194.374 222.415 192.945C224.546 191.568 225.758 191.19 228.2 190.525Z"/><path fill="#76E0B5" d="M331.344 323.697C334.11 325.359 336.463 333.435 336.738 336.564C337.686 335.222 339.687 332.019 341.427 331.836C342.4 332.884 341.841 335.138 341.852 336.82C342.729 336.987 344.616 337.132 344.94 337.955C344.226 338.764 343.638 338.196 342.678 338.956C343.669 340.665 344.952 341.046 346.658 344.235C356.803 344.741 360.183 349.088 363.638 358.208L301.625 358.233C294.358 358.256 287.091 358.242 279.825 358.191C279.122 349.454 277.582 338.082 276.385 329.293L294.606 338.424C297.924 340.083 302.078 342.025 305.167 343.925C307.716 341.604 311.924 338.55 314.72 336.402L331.344 323.697Z"/><path fill="#76E0B5" d="M150.185 323.2L150.607 323.553C150.929 326.109 150.714 333.205 150.677 336.125L150.453 358.153C147.176 358.262 143.897 358.242 140.623 358.093C141.657 356.343 143.054 354.78 144.361 353.215C140.162 354.222 139.128 354.638 135.507 357.101C136.987 353.304 137.595 352.861 140.782 350.388C135.63 351.422 134.248 351.738 130.541 355.526C131.36 350.469 131.497 348.332 134.011 343.837C130.415 346.435 129.225 348.55 127.36 352.531C126.983 348.929 126.835 347.643 124.866 344.607C124.829 346.711 125.33 353.483 123.882 354.868C123.055 354.499 121.799 353.009 121.111 352.281C121.36 354.419 121.545 356.129 122.015 358.243L115.931 358.229C107.356 358.236 96.0907 358.55 87.7281 358.099C87.6733 349.71 90.9633 343.525 98.6882 339.96C97.3209 338.012 95.8032 335.046 96.5392 332.634C97.9604 331.552 99.5306 334.408 100.26 335.424C100.213 333.163 99.9201 327.725 102.099 326.24L102.619 326.423C103.697 327.965 103.68 329.148 103.905 331.012C105.486 329.321 106.385 328.406 108.217 327.012C116.35 332.131 123.913 327.51 132.622 326.568C135.238 326.286 142.612 324.22 144.768 324.609C145.055 324.934 145.272 325.275 145.485 325.652L145.804 325.506L145.967 324.212L146.371 324.013C147.927 324.994 148.554 324.039 150.185 323.2Z"/><path fill="#F582AE" d="M231.497 219.386C232.967 219.552 238.429 221.636 240.138 222.25C245.842 224.327 251.56 226.364 257.292 228.361L240.654 238.08C238.707 239.23 236.711 240.453 234.711 241.495C230.033 238.767 222.479 234.941 217.619 232.522C225.849 230.473 228.024 226.622 231.497 219.386Z"/><path fill="#FEFEFE" d="M210.716 158.15C214.336 160.051 218.272 160.585 222.252 161.257C222.362 161.368 222.472 161.479 222.583 161.59C222.229 162.176 222.263 161.998 221.363 162.233L221.701 162.995L221.546 163.308L220.964 163.287C219.741 164.287 214.846 165.292 213.198 165.482C210.075 166.757 209.12 168.036 208.073 171.129C206.15 171.008 204.651 170.872 202.745 170.602L203.128 170.31C208.071 166.526 209.854 164.637 210.716 158.15Z"/><path fill="#4231DC" d="M212.709 164.558L212.369 164.17L212.416 163.602C214 161.889 219.213 161.28 221.363 162.233L221.701 162.995L221.546 163.308L220.964 163.287C219.741 164.287 214.846 165.292 213.198 165.482C213.119 165.15 212.903 164.878 212.709 164.558Z"/><path fill="#FEFEFE" d="M212.709 164.558C215.609 163.927 217.5 162.057 220.964 163.287C219.741 164.287 214.846 165.292 213.198 165.482C213.119 165.15 212.903 164.878 212.709 164.558Z"/><path fill="#76E0B5" d="M218.19 166.604L218.619 166.554L218.841 166.915C218.702 167.439 218.569 167.965 218.439 168.492C217.474 172.294 218.294 175.405 219.623 178.932L214.031 177.714C210.357 176.199 209.953 173.877 210.604 170.366C212.762 167.368 214.679 167.33 218.19 166.604Z"/><path fill="#4C3CCB" d="M146.886 123.347C155.186 122.44 165.353 125.473 164.907 135.642C164.607 142.479 160.092 144.101 156.264 148.885C155.341 150.039 155.454 151.484 155.413 152.895C152.145 153.012 148.737 152.985 145.456 153.003C145.369 150.966 145.498 149.981 145.987 148.047C148.101 143.306 152.304 141.601 154.462 137.561C156.632 133.499 150.759 131.017 147.172 132.105C144.01 133.064 142.452 134.467 139.633 135.57L139.286 135.705C136.073 134.516 135.757 134.08 134.6 130.978C136.227 125.742 141.905 123.864 146.886 123.347Z"/><path fill="#76E0B5" d="M147.382 125.82C161.354 124.627 168.693 134.472 156.677 144.761C154.775 146.389 153.547 148.346 152.765 150.669C151.092 150.54 149.299 150.539 147.612 150.509C148.754 147.832 149.132 147.105 151.041 144.926C152.495 143.556 155.993 140.494 156.595 139.058C160.301 130.203 149.63 127.615 143.424 130.872C142.217 131.506 138.718 133.76 137.953 132.493C135.25 128.016 144.819 126.244 147.382 125.82Z"/><path fill="#4C3CCB" d="M273.153 103.307C275.123 103.109 277.944 103.077 279.907 103.227C283.305 103.521 287.851 105.265 290.02 107.892C293.29 111.851 293.077 117.794 290.044 121.815C287.932 124.615 284.901 126.583 283.037 129.551C282.753 130.004 282.528 132.35 282.455 132.997C279.865 132.572 275.672 132.856 272.682 132.649C272.73 131.479 272.867 130.245 272.974 129.074C274.199 125.547 275.892 123.838 278.513 121.247C279.996 119.78 282.298 117.647 282.467 115.503C280.789 110.714 276.545 111.353 272.53 112.604C270.362 113.28 266.95 116.542 264.683 114.714C257.126 108.621 267.931 104.182 273.153 103.307Z"/><path fill="#F582AE" d="M275.042 105.591C284.274 104.592 295.077 110.382 287.56 120.892C285.015 124.45 281.272 125.782 280.244 130.532C278.515 130.379 276.744 130.345 275.006 130.289C275.889 127.989 276.39 127.011 277.97 125.133C280.078 122.981 283.208 120.761 284.281 117.905C286.379 111.636 280.53 109.159 275.3 109.451C271.553 109.659 270.788 110.678 267.585 112.458C266.154 113.253 265.038 112.122 264.492 110.803C264.793 107.616 272.38 105.902 275.042 105.591Z"/><path fill="#4C3CCB" d="M149.933 155.055C152.021 154.897 154.032 155.877 155.195 157.619C156.357 159.36 156.491 161.593 155.544 163.461C154.598 165.329 152.718 166.542 150.626 166.634C147.461 166.774 144.769 164.348 144.58 161.186C144.391 158.023 146.774 155.294 149.933 155.055Z"/><path fill="#76E0B5" d="M149.549 157.586C150.721 157.274 151.971 157.621 152.815 158.493C153.659 159.364 153.966 160.624 153.617 161.786C153.268 162.948 152.319 163.831 151.134 164.094C149.354 164.489 147.585 163.388 147.154 161.616C146.722 159.845 147.787 158.054 149.549 157.586Z"/><path fill="#4C3CCB" d="M276.315 135.055C279.412 134.26 282.566 136.135 283.347 139.235C284.129 142.336 282.24 145.482 279.136 146.249C276.848 146.815 274.445 145.932 273.067 144.02C271.689 142.108 271.613 139.549 272.874 137.558C273.66 136.316 274.891 135.421 276.315 135.055Z"/><path fill="#F582AE" d="M277.778 137.291C279.591 137.317 281.053 138.779 281.08 140.591C281.107 142.403 279.689 143.908 277.878 143.989C276.659 144.043 275.506 143.429 274.87 142.388C274.234 141.346 274.214 140.041 274.819 138.98C275.424 137.92 276.558 137.273 277.778 137.291Z"/><path fill="#4C3CCB" d="M361.311 190.085L361.858 190.431C362.287 191.695 362.425 193.051 362.615 194.377C363.63 194.55 365.94 194.701 366.314 195.691C365.502 196.523 363.915 196.681 362.716 196.932C362.466 198.495 362.324 199.947 361.598 201.349C360.619 200.474 360.321 198.179 360.062 196.887C358.707 196.694 357.662 196.671 356.549 195.922L356.552 195.513C357.531 194.831 358.788 194.813 360.019 194.65C360.346 193.234 360.597 191.231 361.311 190.085Z"/><path fill="#4C3CCB" d="M109.294 220.562C109.887 220.749 109.717 220.683 110.246 221.02C110.759 222.02 110.456 222.759 110.675 223.819C111.136 226.05 114.161 224.131 114.409 226.482C113.66 227.014 112.147 227.166 111.177 227.339C110.868 228.727 110.64 230.163 110.019 231.424C108.198 230.435 109.142 229.732 108.474 227.916C108.056 226.782 106.284 227.189 104.721 226.426L104.68 226.101C105.465 225.494 107.232 225.04 108.251 224.712C108.664 224.254 109.095 221.45 109.294 220.562Z"/><path fill="#4C3CCB" fill-opacity="0.96470588" d="M181.198 158.384C180.392 154.628 179.49 153.736 181.464 150.174C182.125 152.84 181.942 155.753 181.198 158.384Z"/></svg>