<svg width="27" height="27" viewBox="0 0 27 27" fill="none" xmlns="http://www.w3.org/2000/svg">
<path d="M13.5 16.2778V20.4444M13.5 16.2778C10.1403 16.2778 7.3379 13.8919 6.69447 10.7222M13.5 16.2778C16.8597 16.2778 19.6621 13.8919 20.3056 10.7222M13.5 20.4444C14.7917 20.4444 15.4375 20.4444 15.9674 20.5864C17.4051 20.9717 18.5283 22.0949 18.9136 23.5326C19.0556 24.0625 19.0556 24.7083 19.0556 26H7.94444C7.94444 24.7083 7.94444 24.0625 8.08642 23.5326C8.47169 22.0949 9.59482 20.9717 11.0326 20.5864C11.5625 20.4444 12.2083 20.4444 13.5 20.4444ZM6.69447 10.7222H6.55556H6.20833C5.24031 10.7222 4.75629 10.7222 4.35379 10.6422C2.70092 10.3134 1.40883 9.02131 1.08006 7.36843C1 6.96593 1 6.48192 1 5.51389C1 5.19121 1 5.02988 1.02668 4.89571C1.13628 4.34475 1.56697 3.91406 2.11793 3.80446C2.2521 3.77778 2.41343 3.77778 2.73611 3.77778H6.55556M6.69447 10.7222C6.60337 10.2735 6.55556 9.80899 6.55556 9.33333V3.18254C6.55556 2.4421 6.55556 2.07189 6.6931 1.78628C6.82961 1.50279 7.05835 1.27406 7.34183 1.13754C7.62744 1 7.99765 1 8.7381 1H18.2619C19.0024 1 19.3725 1 19.6582 1.13754C19.9417 1.27406 20.1704 1.50279 20.3069 1.78628C20.4444 2.07189 20.4444 2.4421 20.4444 3.18254V9.33333C20.4444 9.80899 20.3967 10.2735 20.3056 10.7222M20.3056 10.7222H20.4444H20.7917C21.7597 10.7222 22.2437 10.7222 22.6462 10.6422C24.299 10.3134 25.5911 9.02131 25.92 7.36843C26 6.96593 26 6.48192 26 5.51389C26 5.19121 26 5.02988 25.9733 4.89571C25.8637 4.34475 25.4331 3.91406 24.8821 3.80446C24.7479 3.77778 24.5865 3.77778 24.2639 3.77778H20.4444" stroke="black" stroke-width="1.2" stroke-linecap="round" stroke-linejoin="round"/>
</svg>
